<svg xmlns="http://www.w3.org/2000/svg" width="1721" height="796" fill="none" viewBox="0 0 1721 796"><path fill="url(#a)" d="M0 0h1721v796H0z"/><g clip-path="url(#b)"><path fill="#6F6F6F" d="M69.057 341v-58.182h39.204v10.142H81.358v13.864h24.886v10.142H81.358v13.892h27.017V341H69.057Zm80.547-41.449c-.228-2.292-1.203-4.072-2.926-5.341-1.724-1.269-4.063-1.903-7.017-1.903-2.008 0-3.703.284-5.086.852-1.382.549-2.443 1.316-3.182 2.301-.719.985-1.079 2.102-1.079 3.352-.038 1.042.18 1.951.653 2.728.493.776 1.165 1.449 2.017 2.017.853.549 1.837 1.032 2.955 1.449 1.117.397 2.311.738 3.579 1.022l5.228 1.25c2.538.569 4.867 1.326 6.988 2.273 2.122.947 3.959 2.112 5.512 3.494a14.54 14.54 0 0 1 3.608 4.887c.871 1.875 1.316 4.024 1.335 6.449-.019 3.56-.928 6.647-2.727 9.261-1.781 2.595-4.356 4.612-7.728 6.051-3.352 1.421-7.395 2.131-12.13 2.131-4.697 0-8.788-.72-12.273-2.159-3.466-1.44-6.174-3.57-8.125-6.392-1.932-2.841-2.945-6.354-3.04-10.54h11.904c.132 1.951.691 3.579 1.676 4.886 1.004 1.288 2.339 2.264 4.005 2.926 1.686.644 3.589.966 5.711.966 2.083 0 3.892-.303 5.426-.909 1.553-.606 2.755-1.449 3.608-2.528.852-1.08 1.278-2.32 1.278-3.722 0-1.307-.388-2.405-1.165-3.295-.757-.89-1.875-1.648-3.352-2.273-1.458-.625-3.248-1.193-5.369-1.704l-6.335-1.591c-4.906-1.194-8.779-3.059-11.62-5.597-2.841-2.538-4.252-5.956-4.233-10.256-.019-3.522.919-6.6 2.813-9.233 1.913-2.632 4.536-4.687 7.869-6.164 3.333-1.478 7.121-2.216 11.364-2.216 4.318 0 8.087.738 11.307 2.216 3.238 1.477 5.757 3.532 7.556 6.164 1.8 2.633 2.728 5.682 2.784 9.148h-11.789ZM170.463 341v-58.182h12.301v48.04h24.943V341h-37.244Zm57.692-58.182V341h-12.301v-58.182h12.301Zm58.785 0V341h-10.625l-25.312-36.619h-.426V341h-12.301v-58.182h10.795l25.114 36.591h.511v-36.591h12.244Zm7.948 10.142v-10.142h47.784v10.142h-17.813V341H312.7v-48.04h-17.812Z"/><path fill="#252525" d="M69.057 446v-58.182H92.01c4.413 0 8.173.843 11.279 2.529 3.106 1.666 5.473 3.986 7.102 6.96 1.648 2.954 2.472 6.363 2.472 10.227s-.834 7.273-2.5 10.227c-1.667 2.955-4.082 5.256-7.245 6.904-3.144 1.647-6.95 2.471-11.42 2.471h-14.63v-9.858H89.71c2.368 0 4.318-.407 5.853-1.221 1.552-.834 2.708-1.979 3.465-3.438.777-1.477 1.165-3.172 1.165-5.085 0-1.932-.388-3.617-1.165-5.057-.757-1.458-1.913-2.585-3.466-3.38-1.552-.815-3.522-1.222-5.909-1.222h-8.295V446H69.057Zm51.797 0v-58.182h12.301v48.04h24.943V446h-37.244Zm81.328-58.182h12.301v37.784c0 4.243-1.013 7.955-3.04 11.137-2.007 3.181-4.82 5.663-8.437 7.443-3.618 1.761-7.832 2.642-12.642 2.642-4.83 0-9.053-.881-12.671-2.642-3.617-1.78-6.43-4.262-8.437-7.443-2.008-3.182-3.012-6.894-3.012-11.137v-37.784h12.301v36.733c0 2.216.483 4.186 1.449 5.909.985 1.724 2.368 3.078 4.148 4.063 1.78.985 3.854 1.477 6.222 1.477 2.386 0 4.46-.492 6.221-1.477 1.781-.985 3.154-2.339 4.12-4.063.984-1.723 1.477-3.693 1.477-5.909v-36.733Zm61.001 18.807c-.397-1.383-.956-2.604-1.676-3.665a10.36 10.36 0 0 0-2.642-2.727c-1.023-.758-2.197-1.335-3.523-1.733-1.306-.398-2.755-.597-4.346-.597-2.974 0-5.587.739-7.841 2.216-2.235 1.478-3.977 3.627-5.227 6.449-1.25 2.803-1.875 6.231-1.875 10.284 0 4.053.615 7.5 1.846 10.341 1.231 2.841 2.974 5.01 5.227 6.506 2.254 1.477 4.915 2.216 7.983 2.216 2.784 0 5.161-.493 7.131-1.477 1.989-1.004 3.504-2.415 4.546-4.233 1.06-1.819 1.59-3.968 1.59-6.449l2.5.369h-15v-9.261h24.347v7.329c0 5.114-1.08 9.508-3.239 13.182-2.159 3.655-5.132 6.477-8.92 8.466-3.788 1.97-8.125 2.954-13.011 2.954-5.455 0-10.247-1.202-14.375-3.607-4.129-2.425-7.349-5.862-9.66-10.313-2.291-4.47-3.437-9.773-3.437-15.909 0-4.716.682-8.921 2.045-12.614 1.383-3.712 3.315-6.856 5.796-9.432a25.037 25.037 0 0 1 8.665-5.88c3.295-1.345 6.865-2.017 10.71-2.017 3.295 0 6.364.483 9.204 1.449 2.841.947 5.36 2.291 7.557 4.034a21.83 21.83 0 0 1 5.426 6.221c1.402 2.387 2.302 5.019 2.699 7.898h-12.5Zm34.581-18.807V446h-12.301v-58.182h12.301Zm58.786 0V446h-10.625l-25.313-36.619h-.426V446h-12.301v-58.182h10.795l25.114 36.591h.511v-36.591h12.245Zm37.123 24.29v9.602h-26.534v-9.602h26.534Zm61.875-3.92h-12.443c-.227-1.61-.691-3.04-1.392-4.29a10.907 10.907 0 0 0-2.699-3.239c-1.098-.89-2.367-1.572-3.807-2.045-1.42-.474-2.964-.711-4.63-.711-3.012 0-5.635.749-7.87 2.245-2.234 1.477-3.967 3.636-5.198 6.477-1.232 2.822-1.847 6.25-1.847 10.284 0 4.148.615 7.633 1.847 10.455 1.25 2.822 2.992 4.952 5.227 6.392 2.235 1.439 4.82 2.159 7.755 2.159 1.648 0 3.173-.218 4.574-.654 1.421-.435 2.68-1.07 3.779-1.903a10.98 10.98 0 0 0 2.727-3.097c.739-1.212 1.25-2.594 1.534-4.147l12.443.056c-.322 2.671-1.127 5.247-2.414 7.728-1.269 2.462-2.983 4.668-5.143 6.619-2.14 1.932-4.696 3.466-7.67 4.602-2.955 1.118-6.297 1.676-10.028 1.676-5.19 0-9.83-1.174-13.921-3.522-4.072-2.349-7.292-5.748-9.659-10.199-2.348-4.451-3.523-9.839-3.523-16.165 0-6.345 1.194-11.742 3.58-16.193 2.386-4.451 5.625-7.841 9.716-10.171 4.091-2.348 8.693-3.522 13.807-3.522 3.371 0 6.496.473 9.375 1.42 2.897.947 5.464 2.33 7.698 4.148 2.235 1.799 4.054 4.006 5.455 6.619 1.42 2.614 2.33 5.606 2.727 8.978Zm62.287 8.721c0 6.345-1.202 11.743-3.608 16.193-2.386 4.451-5.644 7.851-9.772 10.199-4.11 2.33-8.732 3.494-13.864 3.494-5.171 0-9.811-1.174-13.921-3.522-4.109-2.349-7.357-5.748-9.744-10.199-2.386-4.451-3.579-9.839-3.579-16.165 0-6.345 1.193-11.742 3.579-16.193 2.387-4.451 5.635-7.841 9.744-10.171 4.11-2.348 8.75-3.522 13.921-3.522 5.132 0 9.754 1.174 13.864 3.522 4.128 2.33 7.386 5.72 9.772 10.171 2.406 4.451 3.608 9.848 3.608 16.193Zm-12.471 0c0-4.11-.616-7.576-1.847-10.398-1.212-2.822-2.926-4.962-5.142-6.42-2.216-1.458-4.811-2.188-7.784-2.188-2.974 0-5.568.73-7.784 2.188-2.216 1.458-3.94 3.598-5.171 6.42-1.212 2.822-1.818 6.288-1.818 10.398 0 4.11.606 7.576 1.818 10.398 1.231 2.822 2.955 4.962 5.171 6.42 2.216 1.459 4.81 2.188 7.784 2.188 2.973 0 5.568-.729 7.784-2.188 2.216-1.458 3.93-3.598 5.142-6.42 1.231-2.822 1.847-6.288 1.847-10.398Zm21.583-29.091h15.171l16.023 39.091h.681l16.023-39.091h15.171V446h-11.932v-37.869h-.483l-15.057 37.585h-8.125l-15.057-37.727h-.483V446h-11.932v-58.182Zm73.204 0h15.17l16.023 39.091h.682l16.022-39.091h15.171V446h-11.932v-37.869h-.483l-15.057 37.585h-8.125l-15.057-37.727h-.483V446h-11.931v-58.182ZM673.354 446v-58.182h39.204v10.142h-26.903v13.864h24.886v10.142h-24.886v13.892h27.017V446h-39.318Zm97.649-58.182V446h-10.625l-25.313-36.619h-.426V446h-12.301v-58.182h10.796l25.113 36.591h.512v-36.591h12.244Zm7.947 10.142v-10.142h47.784v10.142h-17.812V446h-12.159v-48.04H778.95Zm87.216 6.591c-.227-2.292-1.202-4.072-2.926-5.341-1.723-1.269-4.062-1.903-7.017-1.903-2.008 0-3.703.284-5.085.852-1.383.549-2.443 1.316-3.182 2.301-.72.985-1.08 2.102-1.08 3.352-.037 1.042.18 1.951.654 2.728.492.776 1.165 1.449 2.017 2.017.852.549 1.837 1.032 2.954 1.449 1.118.397 2.311.738 3.58 1.022l5.227 1.25c2.538.569 4.868 1.326 6.989 2.273 2.121.947 3.958 2.112 5.511 3.494a14.527 14.527 0 0 1 3.608 4.887c.871 1.875 1.316 4.024 1.335 6.449-.019 3.56-.928 6.647-2.727 9.261-1.78 2.595-4.356 4.612-7.727 6.051-3.352 1.421-7.396 2.131-12.131 2.131-4.697 0-8.788-.72-12.273-2.159-3.465-1.44-6.174-3.57-8.125-6.392-1.931-2.841-2.945-6.354-3.039-10.54h11.903c.133 1.951.691 3.579 1.676 4.886 1.004 1.288 2.339 2.264 4.006 2.926 1.686.644 3.589.966 5.71.966 2.083 0 3.892-.303 5.426-.909 1.553-.606 2.756-1.449 3.608-2.528.853-1.08 1.279-2.32 1.279-3.722 0-1.307-.389-2.405-1.165-3.295-.758-.89-1.875-1.648-3.352-2.273-1.459-.625-3.249-1.193-5.37-1.704l-6.335-1.591c-4.905-1.194-8.778-3.059-11.619-5.597-2.841-2.538-4.252-5.956-4.233-10.256-.019-3.522.918-6.6 2.812-9.233 1.913-2.632 4.536-4.687 7.87-6.164 3.333-1.478 7.121-2.216 11.363-2.216 4.318 0 8.087.738 11.307 2.216 3.239 1.477 5.758 3.532 7.557 6.164 1.799 2.633 2.727 5.682 2.784 9.148h-11.79Z"/><path fill="#424242" d="m68.244 497.818 7.773 22.04h.307l7.773-22.04h3.324L77.806 524h-3.273l-9.614-26.182h3.324ZM95.04 524.46c-1.245 0-2.374-.234-3.388-.703-1.014-.477-1.82-1.163-2.416-2.058-.597-.904-.895-1.994-.895-3.273 0-1.125.222-2.037.665-2.736a4.699 4.699 0 0 1 1.777-1.662c.741-.4 1.56-.698 2.454-.894a29.617 29.617 0 0 1 2.723-.486c1.193-.154 2.16-.269 2.902-.345.75-.086 1.296-.226 1.637-.422.349-.196.524-.537.524-1.023v-.102c0-1.262-.345-2.242-1.036-2.941-.682-.699-1.717-1.048-3.106-1.048-1.44 0-2.57.315-3.388.946-.818.631-1.394 1.304-1.726 2.02l-2.864-1.023c.512-1.193 1.194-2.122 2.046-2.787a7.667 7.667 0 0 1 2.812-1.406 11.665 11.665 0 0 1 3.017-.409c.631 0 1.355.077 2.174.23a6.961 6.961 0 0 1 2.39.908c.776.46 1.419 1.155 1.931 2.084.511.929.767 2.173.767 3.732V524h-3.017v-2.659h-.154c-.204.426-.545.882-1.022 1.368-.478.486-1.113.899-1.905 1.24-.793.341-1.76.511-2.902.511Zm.46-2.71c1.193 0 2.199-.234 3.017-.703.827-.469 1.449-1.074 1.867-1.815a4.631 4.631 0 0 0 .639-2.34v-2.761c-.128.153-.409.294-.844.422-.426.119-.92.225-1.483.319-.554.085-1.095.162-1.624.23-.52.06-.941.111-1.265.154a11.52 11.52 0 0 0-2.199.498c-.673.222-1.219.558-1.636 1.01-.41.443-.614 1.048-.614 1.816 0 1.048.388 1.84 1.163 2.377.784.529 1.777.793 2.979.793Zm14.047 2.25v-19.636h2.914v2.966h.205c.358-.972 1.006-1.76 1.943-2.366.938-.605 1.994-.907 3.17-.907.222 0 .499.004.831.013.333.008.584.021.755.038v3.068a9.296 9.296 0 0 0-.703-.115 6.892 6.892 0 0 0-1.138-.089c-.955 0-1.807.2-2.557.6a4.524 4.524 0 0 0-1.764 1.637c-.426.69-.639 1.478-.639 2.365V524h-3.017Zm13.394 0v-19.636h3.017V524h-3.017Zm1.534-22.909c-.588 0-1.095-.2-1.521-.601a1.93 1.93 0 0 1-.627-1.445c0-.562.209-1.044.627-1.444a2.143 2.143 0 0 1 1.521-.601c.588 0 1.091.2 1.509.601.426.4.639.882.639 1.444 0 .563-.213 1.044-.639 1.445a2.101 2.101 0 0 1-1.509.601Zm14.986 23.318c-1.772 0-3.328-.422-4.666-1.266-1.329-.843-2.369-2.024-3.119-3.541-.742-1.517-1.112-3.29-1.112-5.318 0-2.045.37-3.831 1.112-5.356.75-1.526 1.79-2.711 3.119-3.554 1.338-.844 2.894-1.266 4.666-1.266 1.773 0 3.324.422 4.654 1.266 1.338.843 2.378 2.028 3.119 3.554.75 1.525 1.125 3.311 1.125 5.356 0 2.028-.375 3.801-1.125 5.318-.741 1.517-1.781 2.698-3.119 3.541-1.33.844-2.881 1.266-4.654 1.266Zm0-2.71c1.347 0 2.455-.345 3.324-1.036.869-.69 1.513-1.598 1.931-2.723.417-1.125.626-2.343.626-3.656 0-1.312-.209-2.535-.626-3.669-.418-1.133-1.062-2.05-1.931-2.749-.869-.698-1.977-1.048-3.324-1.048-1.346 0-2.454.35-3.324 1.048-.869.699-1.512 1.616-1.93 2.749-.418 1.134-.626 2.357-.626 3.669 0 1.313.208 2.531.626 3.656.418 1.125 1.061 2.033 1.93 2.723.87.691 1.978 1.036 3.324 1.036Zm25.878-5.727v-11.608h3.018V524h-3.018v-3.324h-.204c-.46.997-1.176 1.845-2.148 2.544-.971.691-2.199 1.036-3.682 1.036-1.227 0-2.318-.269-3.272-.806-.955-.545-1.705-1.363-2.25-2.454-.546-1.1-.819-2.485-.819-4.155v-12.477h3.018v12.272c0 1.432.4 2.574 1.201 3.426.81.853 1.841 1.279 3.094 1.279.75 0 1.513-.192 2.288-.575.784-.384 1.441-.972 1.969-1.765.537-.792.805-1.802.805-3.029Zm22.453-7.211-2.711.767a5.036 5.036 0 0 0-.754-1.316c-.324-.435-.767-.793-1.329-1.074-.563-.281-1.283-.422-2.161-.422-1.202 0-2.203.277-3.004.831-.793.545-1.189 1.24-1.189 2.084 0 .75.273 1.342.818 1.777.545.434 1.398.797 2.557 1.086l2.915.716c1.755.426 3.064 1.078 3.924 1.956.861.87 1.292 1.99 1.292 3.362 0 1.125-.324 2.131-.972 3.017-.639.887-1.534 1.586-2.685 2.097-1.15.511-2.488.767-4.014.767-2.003 0-3.66-.435-4.973-1.304-1.312-.869-2.143-2.139-2.493-3.81l2.864-.715c.273 1.056.788 1.849 1.547 2.377.767.529 1.768.793 3.004.793 1.406 0 2.523-.298 3.349-.895.836-.605 1.253-1.329 1.253-2.173 0-.682-.238-1.253-.716-1.713-.477-.469-1.21-.818-2.199-1.049l-3.272-.767c-1.799-.426-3.12-1.086-3.963-1.981-.836-.904-1.253-2.033-1.253-3.388 0-1.108.311-2.088.933-2.94.631-.853 1.487-1.522 2.57-2.007 1.091-.486 2.326-.729 3.707-.729 1.943 0 3.469.426 4.577 1.278 1.116.853 1.909 1.978 2.378 3.375ZM202.816 524v-19.636h2.915v2.966h.204c.358-.972 1.006-1.76 1.944-2.366.937-.605 1.994-.907 3.17-.907.222 0 .499.004.831.013.332.008.584.021.754.038v3.068a9.11 9.11 0 0 0-.703-.115 6.883 6.883 0 0 0-1.138-.089c-.954 0-1.806.2-2.556.6a4.534 4.534 0 0 0-1.765 1.637c-.426.69-.639 1.478-.639 2.365V524h-3.017Zm25.77-8.028v-11.608h3.017V524h-3.017v-3.324h-.205c-.46.997-1.176 1.845-2.148 2.544-.971.691-2.199 1.036-3.682 1.036-1.227 0-2.318-.269-3.272-.806-.955-.545-1.705-1.363-2.25-2.454-.546-1.1-.818-2.485-.818-4.155v-12.477h3.017v12.272c0 1.432.4 2.574 1.201 3.426.81.853 1.841 1.279 3.094 1.279.75 0 1.513-.192 2.288-.575.785-.384 1.441-.972 1.969-1.765.537-.792.806-1.802.806-3.029Zm11.56-18.154V524h-3.017v-26.182h3.017Zm13.758 26.591c-1.892 0-3.524-.418-4.896-1.253-1.363-.844-2.416-2.02-3.158-3.528-.732-1.517-1.099-3.281-1.099-5.293 0-2.011.367-3.784 1.099-5.318.742-1.543 1.773-2.744 3.094-3.605 1.33-.869 2.881-1.304 4.654-1.304 1.022 0 2.032.17 3.029.511a7.5 7.5 0 0 1 2.723 1.662c.819.759 1.471 1.764 1.956 3.017.486 1.253.729 2.796.729 4.628v1.279h-15.136v-2.608h12.068c0-1.108-.222-2.097-.665-2.966a5.007 5.007 0 0 0-1.866-2.059c-.801-.502-1.747-.754-2.838-.754-1.202 0-2.242.298-3.12.895a5.89 5.89 0 0 0-2.007 2.301 6.756 6.756 0 0 0-.703 3.043v1.738c0 1.483.256 2.741.767 3.772.52 1.022 1.24 1.802 2.161 2.339.92.529 1.99.793 3.208.793.793 0 1.509-.111 2.148-.333a4.605 4.605 0 0 0 1.675-1.022c.469-.46.831-1.032 1.087-1.713l2.914.818a6.445 6.445 0 0 1-1.547 2.608c-.724.741-1.619 1.321-2.684 1.738-1.066.41-2.263.614-3.593.614Zm26.63-15.648-2.71.767a5.04 5.04 0 0 0-.755-1.316c-.324-.435-.767-.793-1.329-1.074-.563-.281-1.283-.422-2.161-.422-1.202 0-2.203.277-3.004.831-.793.545-1.189 1.24-1.189 2.084 0 .75.273 1.342.818 1.777.546.434 1.398.797 2.557 1.086l2.915.716c1.755.426 3.064 1.078 3.924 1.956.861.87 1.292 1.99 1.292 3.362 0 1.125-.324 2.131-.972 3.017-.639.887-1.534 1.586-2.685 2.097-1.15.511-2.488.767-4.014.767-2.003 0-3.66-.435-4.973-1.304-1.312-.869-2.143-2.139-2.493-3.81l2.864-.715c.273 1.056.788 1.849 1.547 2.377.767.529 1.768.793 3.004.793 1.406 0 2.523-.298 3.35-.895.835-.605 1.252-1.329 1.252-2.173 0-.682-.238-1.253-.716-1.713-.477-.469-1.21-.818-2.198-1.049l-3.273-.767c-1.798-.426-3.119-1.086-3.963-1.981-.835-.904-1.253-2.033-1.253-3.388 0-1.108.311-2.088.933-2.94.631-.853 1.487-1.522 2.57-2.007 1.091-.486 2.327-.729 3.707-.729 1.943 0 3.469.426 4.577 1.278 1.116.853 1.909 1.978 2.378 3.375Zm23.769-4.397v2.556h-10.586v-2.556h10.586ZM296.888 524v-22.347c0-1.125.264-2.062.792-2.812a4.917 4.917 0 0 1 2.059-1.688 6.502 6.502 0 0 1 2.672-.562c.741 0 1.346.06 1.815.179.469.119.818.23 1.048.332l-.869 2.608a16.089 16.089 0 0 0-.639-.192c-.265-.076-.614-.115-1.049-.115-.997 0-1.717.252-2.16.755-.435.503-.652 1.24-.652 2.211V524h-3.017Zm18.812.409c-1.773 0-3.329-.422-4.667-1.266-1.329-.843-2.369-2.024-3.119-3.541-.741-1.517-1.112-3.29-1.112-5.318 0-2.045.371-3.831 1.112-5.356.75-1.526 1.79-2.711 3.119-3.554 1.338-.844 2.894-1.266 4.667-1.266 1.772 0 3.323.422 4.653 1.266 1.338.843 2.378 2.028 3.119 3.554.75 1.525 1.125 3.311 1.125 5.356 0 2.028-.375 3.801-1.125 5.318-.741 1.517-1.781 2.698-3.119 3.541-1.33.844-2.881 1.266-4.653 1.266Zm0-2.71c1.346 0 2.454-.345 3.323-1.036.87-.69 1.513-1.598 1.931-2.723.417-1.125.626-2.343.626-3.656 0-1.312-.209-2.535-.626-3.669-.418-1.133-1.061-2.05-1.931-2.749-.869-.698-1.977-1.048-3.323-1.048-1.347 0-2.455.35-3.324 1.048-.87.699-1.513 1.616-1.931 2.749-.417 1.134-.626 2.357-.626 3.669 0 1.313.209 2.531.626 3.656.418 1.125 1.061 2.033 1.931 2.723.869.691 1.977 1.036 3.324 1.036ZM329.203 524v-19.636h2.915v2.966h.204c.358-.972 1.006-1.76 1.943-2.366.938-.605 1.995-.907 3.171-.907.221 0 .498.004.831.013.332.008.583.021.754.038v3.068a9.202 9.202 0 0 0-.703-.115 6.883 6.883 0 0 0-1.138-.089c-.955 0-1.807.2-2.557.6a4.538 4.538 0 0 0-1.764 1.637c-.426.69-.639 1.478-.639 2.365V524h-3.017Zm27.968 0-5.983-19.636h3.171l4.244 15.034h.205l4.193-15.034h3.221l4.142 14.983h.205l4.244-14.983h3.171L372.001 524h-2.966l-4.296-15.085h-.306L360.137 524h-2.966Zm32.111.409c-1.773 0-3.329-.422-4.667-1.266-1.329-.843-2.369-2.024-3.119-3.541-.741-1.517-1.112-3.29-1.112-5.318 0-2.045.371-3.831 1.112-5.356.75-1.526 1.79-2.711 3.119-3.554 1.338-.844 2.894-1.266 4.667-1.266 1.772 0 3.323.422 4.653 1.266 1.338.843 2.378 2.028 3.119 3.554.75 1.525 1.125 3.311 1.125 5.356 0 2.028-.375 3.801-1.125 5.318-.741 1.517-1.781 2.698-3.119 3.541-1.33.844-2.881 1.266-4.653 1.266Zm0-2.71c1.346 0 2.454-.345 3.323-1.036.87-.69 1.513-1.598 1.931-2.723.417-1.125.626-2.343.626-3.656 0-1.312-.209-2.535-.626-3.669-.418-1.133-1.061-2.05-1.931-2.749-.869-.698-1.977-1.048-3.323-1.048-1.347 0-2.455.35-3.324 1.048-.87.699-1.513 1.616-1.931 2.749-.417 1.134-.626 2.357-.626 3.669 0 1.313.209 2.531.626 3.656.418 1.125 1.061 2.033 1.931 2.723.869.691 1.977 1.036 3.324 1.036ZM402.785 524v-19.636h2.915v2.966h.204c.358-.972 1.006-1.76 1.943-2.366.938-.605 1.995-.907 3.171-.907.221 0 .498.004.831.013.332.008.584.021.754.038v3.068a9.202 9.202 0 0 0-.703-.115 6.883 6.883 0 0 0-1.138-.089c-.954 0-1.807.2-2.557.6a4.538 4.538 0 0 0-1.764 1.637c-.426.69-.639 1.478-.639 2.365V524h-3.017Zm16.207-7.159-.051-3.733h.613l8.591-8.744h3.733l-9.153 9.255h-.256l-3.477 3.222ZM416.179 524v-26.182h3.017V524h-3.017Zm12.478 0-7.671-9.716 2.148-2.096L432.492 524h-3.835Zm7.104 0v-19.636h3.017V524h-3.017Zm1.534-22.909c-.588 0-1.095-.2-1.521-.601a1.933 1.933 0 0 1-.626-1.445c0-.562.209-1.044.626-1.444a2.143 2.143 0 0 1 1.521-.601 2.1 2.1 0 0 1 1.509.601c.426.4.639.882.639 1.444 0 .563-.213 1.044-.639 1.445a2.1 2.1 0 0 1-1.509.601Zm10.026 11.097V524h-3.017v-19.636h2.915v3.068h.256a5.616 5.616 0 0 1 2.096-2.404c.938-.613 2.148-.92 3.631-.92 1.33 0 2.493.273 3.49.818.997.537 1.773 1.355 2.327 2.455.554 1.091.831 2.471.831 4.142V524h-3.017v-12.273c0-1.542-.401-2.744-1.202-3.605-.801-.869-1.901-1.304-3.298-1.304-.963 0-1.824.209-2.583.627-.75.417-1.342 1.027-1.777 1.828-.434.801-.652 1.772-.652 2.915Zm25.968 19.585c-1.457 0-2.71-.188-3.758-.563-1.049-.366-1.922-.852-2.621-1.457-.691-.597-1.24-1.236-1.649-1.918l2.403-1.687c.273.358.618.767 1.036 1.227.417.469.988.874 1.713 1.214.733.35 1.691.525 2.876.525 1.585 0 2.894-.384 3.925-1.151 1.031-.767 1.547-1.969 1.547-3.605v-3.989h-.256c-.222.358-.537.801-.946 1.33-.401.52-.98.984-1.739 1.393-.75.401-1.764.601-3.042.601-1.586 0-3.009-.375-4.27-1.125-1.253-.75-2.246-1.841-2.979-3.273-.724-1.431-1.087-3.17-1.087-5.215 0-2.012.354-3.763 1.062-5.255.707-1.5 1.691-2.659 2.953-3.477 1.261-.827 2.718-1.24 4.372-1.24 1.278 0 2.292.213 3.042.639.759.418 1.339.895 1.739 1.432.409.528.725.963.946 1.304h.307v-3.119h2.915v20.198c0 1.688-.384 3.06-1.151 4.117-.758 1.065-1.781 1.845-3.068 2.339-1.278.503-2.702.755-4.27.755Zm-.102-10.79c1.21 0 2.233-.277 3.068-.831.835-.554 1.47-1.351 1.905-2.391.434-1.039.652-2.284.652-3.733 0-1.414-.213-2.663-.639-3.745-.427-1.083-1.057-1.931-1.892-2.544-.836-.614-1.867-.921-3.094-.921-1.279 0-2.344.324-3.196.972-.844.647-1.479 1.517-1.905 2.608-.418 1.091-.626 2.301-.626 3.63 0 1.364.213 2.57.639 3.618.434 1.04 1.074 1.858 1.917 2.455.853.588 1.909.882 3.171.882ZM501.874 524l-5.983-19.636h3.171l4.244 15.034h.205l4.193-15.034h3.221l4.142 14.983h.205l4.244-14.983h3.171L516.704 524h-2.966l-4.296-15.085h-.306L504.84 524h-2.966Zm24.801 0v-19.636h3.017V524h-3.017Zm1.535-22.909c-.589 0-1.096-.2-1.522-.601a1.933 1.933 0 0 1-.626-1.445c0-.562.209-1.044.626-1.444a2.143 2.143 0 0 1 1.522-.601c.588 0 1.09.2 1.508.601.426.4.639.882.639 1.444 0 .563-.213 1.044-.639 1.445-.418.401-.92.601-1.508.601Zm15.548 3.273v2.556h-10.176v-2.556h10.176Zm-7.21-4.705h3.017v18.716c0 .852.124 1.491.371 1.918.255.417.579.698.971.843.401.137.823.205 1.266.205.332 0 .605-.017.818-.051l.511-.102.614 2.71c-.204.076-.49.153-.856.23-.367.085-.831.128-1.394.128a6.086 6.086 0 0 1-2.506-.55 4.978 4.978 0 0 1-2.019-1.675c-.529-.75-.793-1.696-.793-2.838v-19.534Zm15.187 12.529V524h-3.017v-26.182h3.017v9.614h.256a5.55 5.55 0 0 1 2.071-2.416c.929-.605 2.165-.908 3.708-.908 1.338 0 2.509.268 3.515.805 1.006.529 1.786 1.343 2.34 2.442.562 1.091.843 2.48.843 4.168V524h-3.017v-12.273c0-1.559-.404-2.765-1.214-3.618-.801-.86-1.913-1.291-3.337-1.291-.988 0-1.875.209-2.659.627a4.58 4.58 0 0 0-1.841 1.828c-.443.801-.665 1.772-.665 2.915Zm36.355 12.221c-1.841 0-3.426-.435-4.755-1.304-1.33-.869-2.353-2.067-3.069-3.592-.716-1.526-1.074-3.269-1.074-5.229 0-1.994.367-3.754 1.1-5.28.741-1.534 1.773-2.731 3.094-3.592 1.329-.869 2.88-1.304 4.653-1.304 1.381 0 2.625.256 3.733.767s2.016 1.227 2.723 2.148c.707.92 1.146 1.994 1.317 3.221h-3.017c-.23-.895-.742-1.687-1.534-2.378-.784-.698-1.841-1.048-3.171-1.048-1.176 0-2.207.307-3.094.921-.877.605-1.563 1.461-2.058 2.569-.486 1.1-.728 2.391-.728 3.874 0 1.517.238 2.838.715 3.963.486 1.125 1.168 1.998 2.046 2.621.886.622 1.926.933 3.119.933.784 0 1.496-.137 2.135-.409a4.412 4.412 0 0 0 1.624-1.176 4.52 4.52 0 0 0 .946-1.841h3.017a7 7 0 0 1-1.266 3.132c-.665.92-1.547 1.653-2.646 2.199-1.091.537-2.361.805-3.81.805Zm20.11 0c-1.773 0-3.329-.422-4.667-1.266-1.329-.843-2.369-2.024-3.119-3.541-.741-1.517-1.112-3.29-1.112-5.318 0-2.045.371-3.831 1.112-5.356.75-1.526 1.79-2.711 3.119-3.554 1.338-.844 2.894-1.266 4.667-1.266 1.772 0 3.323.422 4.653 1.266 1.338.843 2.378 2.028 3.119 3.554.75 1.525 1.125 3.311 1.125 5.356 0 2.028-.375 3.801-1.125 5.318-.741 1.517-1.781 2.698-3.119 3.541-1.33.844-2.881 1.266-4.653 1.266Zm0-2.71c1.346 0 2.454-.345 3.323-1.036.87-.69 1.513-1.598 1.931-2.723.417-1.125.626-2.343.626-3.656 0-1.312-.209-2.535-.626-3.669-.418-1.133-1.061-2.05-1.931-2.749-.869-.698-1.977-1.048-3.323-1.048-1.347 0-2.455.35-3.324 1.048-.87.699-1.513 1.616-1.931 2.749-.417 1.134-.626 2.357-.626 3.669 0 1.313.209 2.531.626 3.656.418 1.125 1.061 2.033 1.931 2.723.869.691 1.977 1.036 3.324 1.036ZM621.703 524v-19.636h2.915v3.068h.255c.409-1.048 1.07-1.862 1.982-2.442.912-.588 2.007-.882 3.285-.882 1.296 0 2.374.294 3.235.882.869.58 1.547 1.394 2.032 2.442h.205a5.717 5.717 0 0 1 2.263-2.416c1.005-.605 2.211-.908 3.618-.908 1.755 0 3.191.55 4.308 1.649 1.116 1.091 1.674 2.791 1.674 5.101V524h-3.017v-13.142c0-1.449-.396-2.484-1.188-3.107-.793-.622-1.726-.933-2.8-.933-1.381 0-2.45.418-3.209 1.253-.759.827-1.138 1.875-1.138 3.145V524h-3.068v-13.449c0-1.116-.362-2.015-1.087-2.697-.724-.691-1.657-1.036-2.799-1.036-.784 0-1.517.209-2.199.627-.673.417-1.219.997-1.637 1.738-.409.733-.613 1.581-.613 2.544V524h-3.017Zm31.289 0v-19.636h2.915v3.068h.255c.409-1.048 1.07-1.862 1.982-2.442.912-.588 2.007-.882 3.285-.882 1.296 0 2.374.294 3.235.882.869.58 1.547 1.394 2.032 2.442h.205a5.717 5.717 0 0 1 2.263-2.416c1.005-.605 2.211-.908 3.618-.908 1.755 0 3.191.55 4.308 1.649 1.116 1.091 1.675 2.791 1.675 5.101V524h-3.017v-13.142c0-1.449-.397-2.484-1.189-3.107-.793-.622-1.726-.933-2.8-.933-1.381 0-2.45.418-3.209 1.253-.758.827-1.138 1.875-1.138 3.145V524h-3.068v-13.449c0-1.116-.362-2.015-1.087-2.697-.724-.691-1.657-1.036-2.799-1.036-.784 0-1.517.209-2.199.627-.673.417-1.219.997-1.636 1.738-.41.733-.614 1.581-.614 2.544V524h-3.017Zm39.522.409c-1.892 0-3.524-.418-4.896-1.253-1.364-.844-2.417-2.02-3.158-3.528-.733-1.517-1.1-3.281-1.1-5.293 0-2.011.367-3.784 1.1-5.318.741-1.543 1.773-2.744 3.094-3.605 1.329-.869 2.88-1.304 4.653-1.304 1.023 0 2.033.17 3.03.511a7.509 7.509 0 0 1 2.723 1.662c.818.759 1.47 1.764 1.956 3.017s.729 2.796.729 4.628v1.279h-15.137v-2.608h12.068c0-1.108-.221-2.097-.664-2.966a5.01 5.01 0 0 0-1.867-2.059c-.801-.502-1.747-.754-2.838-.754-1.202 0-2.241.298-3.119.895a5.874 5.874 0 0 0-2.007 2.301 6.757 6.757 0 0 0-.704 3.043v1.738c0 1.483.256 2.741.768 3.772.519 1.022 1.24 1.802 2.16 2.339.92.529 1.99.793 3.209.793.792 0 1.508-.111 2.148-.333a4.6 4.6 0 0 0 1.674-1.022c.469-.46.831-1.032 1.087-1.713l2.915.818a6.468 6.468 0 0 1-1.547 2.608c-.725.741-1.619 1.321-2.685 1.738-1.065.41-2.263.614-3.592.614Zm15.737-12.221V524h-3.017v-19.636h2.915v3.068h.255a5.625 5.625 0 0 1 2.097-2.404c.938-.613 2.148-.92 3.631-.92 1.329 0 2.493.273 3.49.818.997.537 1.773 1.355 2.327 2.455.553 1.091.83 2.471.83 4.142V524h-3.017v-12.273c0-1.542-.4-2.744-1.201-3.605-.801-.869-1.901-1.304-3.299-1.304-.963 0-1.823.209-2.582.627-.75.417-1.342 1.027-1.777 1.828-.435.801-.652 1.772-.652 2.915Zm26.581-7.824v2.556h-10.176v-2.556h10.176Zm-7.21-4.705h3.017v18.716c0 .852.124 1.491.371 1.918.256.417.579.698.972.843.4.137.822.205 1.265.205.333 0 .605-.017.818-.051l.512-.102.613 2.71c-.204.076-.49.153-.856.23-.367.085-.831.128-1.394.128a6.078 6.078 0 0 1-2.505-.55 4.98 4.98 0 0 1-2.02-1.675c-.529-.75-.793-1.696-.793-2.838v-19.534Zm25.306 9.102-2.71.767a5.036 5.036 0 0 0-.754-1.316c-.324-.435-.767-.793-1.33-1.074-.562-.281-1.282-.422-2.16-.422-1.202 0-2.203.277-3.005.831-.792.545-1.188 1.24-1.188 2.084 0 .75.272 1.342.818 1.777.545.434 1.397.797 2.557 1.086l2.914.716c1.756.426 3.064 1.078 3.925 1.956.861.87 1.291 1.99 1.291 3.362 0 1.125-.324 2.131-.971 3.017-.64.887-1.534 1.586-2.685 2.097-1.151.511-2.489.767-4.014.767-2.003 0-3.661-.435-4.973-1.304-1.313-.869-2.144-2.139-2.493-3.81l2.863-.715c.273 1.056.789 1.849 1.547 2.377.767.529 1.769.793 3.005.793 1.406 0 2.522-.298 3.349-.895.835-.605 1.253-1.329 1.253-2.173 0-.682-.239-1.253-.716-1.713-.477-.469-1.21-.818-2.199-1.049l-3.273-.767c-1.798-.426-3.119-1.086-3.963-1.981-.835-.904-1.253-2.033-1.253-3.388 0-1.108.312-2.088.934-2.94.63-.853 1.487-1.522 2.569-2.007 1.091-.486 2.327-.729 3.708-.729 1.943 0 3.468.426 4.576 1.278 1.117.853 1.91 1.978 2.378 3.375Z"/><path fill="url(#c)" d="M1056 98h600v600h-600z"/><path fill="#8080F2" d="m1247.32 331.842 104.47-60.294a8.443 8.443 0 0 1 4.22-1.13c1.48 0 2.94.39 4.23 1.13l104.46 60.294a8.496 8.496 0 0 1 3.1 3.092 8.464 8.464 0 0 1 1.13 4.225v120.612a8.46 8.46 0 0 1-1.13 4.224 8.488 8.488 0 0 1-3.1 3.092l-104.46 60.295a8.507 8.507 0 0 1-4.23 1.13c-1.48 0-2.94-.39-4.22-1.13l-104.47-60.295a8.461 8.461 0 0 1-3.09-3.092 8.368 8.368 0 0 1-1.14-4.224V339.159c0-1.484.39-2.94 1.14-4.225a8.469 8.469 0 0 1 3.09-3.092Z"/><path fill="#4B32C3" d="m1627.6 386.774-124.92-217.13c-4.53-7.865-12.91-13.644-21.97-13.644h-249.64c-9.06 0-17.45 5.791-21.99 13.644L1084.4 386.298a25.812 25.812 0 0 0-3.4 12.809c0 4.493 1.17 8.907 3.4 12.81l124.79 215.367c4.53 7.864 12.92 11.868 21.99 11.868h249.63c9.06 0 17.45-3.896 21.98-11.749L1627.6 411.69c4.53-7.864 4.53-17.039 0-25.023m-103.47 104.419c0 3.193-1.91 6.148-4.7 7.745l-158.98 91.728a9.056 9.056 0 0 1-9 0l-159.11-91.728a9.19 9.19 0 0 1-3.37-3.253 9.14 9.14 0 0 1-1.32-4.492V307.725c0-3.194 1.9-6.149 4.67-7.746l158.98-91.728a9.065 9.065 0 0 1 4.49-1.193c1.58 0 3.13.411 4.49 1.193l159.25 91.609a9.191 9.191 0 0 1 4.72 7.745l-.12 183.481Z"/></g><defs><radialGradient id="a" cx="0" cy="0" r="1" gradientTransform="matrix(860.5113 397.9766 -327.4206 707.954 860.451 397.963)" gradientUnits="userSpaceOnUse"><stop stop-color="#fff"/><stop offset="1" stop-color="#BABABA"/></radialGradient><radialGradient id="c" cx="0" cy="0" r="1" gradientTransform="rotate(90 479 877) scale(300)" gradientUnits="userSpaceOnUse"><stop stop-color="#fff"/><stop offset="1" stop-color="#fff" stop-opacity="0"/></radialGradient><clipPath id="b"><path fill="#fff" d="M0 0h1720v796H0z"/></clipPath></defs></svg>