<svg width="1721" height="796" viewBox="0 0 1721 796" fill="none" xmlns="http://www.w3.org/2000/svg">
<rect width="1721" height="796" fill="url(#paint0_radial_7_355)"/>
<g clip-path="url(#clip0_7_355)">
<path d="M90.0568 341V282.818H129.261V292.96H102.358V306.824H127.244V316.966H102.358V330.858H129.375V341H90.0568ZM170.604 299.551C170.376 297.259 169.401 295.479 167.678 294.21C165.954 292.941 163.615 292.307 160.661 292.307C158.653 292.307 156.958 292.591 155.575 293.159C154.193 293.708 153.132 294.475 152.393 295.46C151.674 296.445 151.314 297.562 151.314 298.812C151.276 299.854 151.494 300.763 151.967 301.54C152.46 302.316 153.132 302.989 153.984 303.557C154.837 304.106 155.821 304.589 156.939 305.006C158.056 305.403 159.25 305.744 160.518 306.028L165.746 307.278C168.284 307.847 170.613 308.604 172.734 309.551C174.856 310.498 176.693 311.663 178.246 313.045C179.799 314.428 181.001 316.057 181.854 317.932C182.725 319.807 183.17 321.956 183.189 324.381C183.17 327.941 182.261 331.028 180.462 333.642C178.681 336.237 176.106 338.254 172.734 339.693C169.382 341.114 165.339 341.824 160.604 341.824C155.907 341.824 151.816 341.104 148.331 339.665C144.865 338.225 142.157 336.095 140.206 333.273C138.274 330.432 137.261 326.919 137.166 322.733H149.07C149.202 324.684 149.761 326.312 150.746 327.619C151.75 328.907 153.085 329.883 154.751 330.545C156.437 331.189 158.34 331.511 160.462 331.511C162.545 331.511 164.354 331.208 165.888 330.602C167.441 329.996 168.643 329.153 169.496 328.074C170.348 326.994 170.774 325.754 170.774 324.352C170.774 323.045 170.386 321.947 169.609 321.057C168.852 320.167 167.734 319.409 166.257 318.784C164.799 318.159 163.009 317.591 160.888 317.08L154.553 315.489C149.647 314.295 145.774 312.43 142.933 309.892C140.092 307.354 138.681 303.936 138.7 299.636C138.681 296.114 139.619 293.036 141.513 290.403C143.426 287.771 146.049 285.716 149.382 284.239C152.715 282.761 156.503 282.023 160.746 282.023C165.064 282.023 168.833 282.761 172.053 284.239C175.291 285.716 177.81 287.771 179.609 290.403C181.409 293.036 182.337 296.085 182.393 299.551H170.604ZM191.463 341V282.818H203.764V330.858H228.707V341H191.463ZM249.155 282.818V341H236.854V282.818H249.155ZM307.94 282.818V341H297.315L272.003 304.381H271.577V341H259.276V282.818H270.071L295.185 319.409H295.696V282.818H307.94ZM315.888 292.96V282.818H363.672V292.96H345.859V341H333.7V292.96H315.888Z" fill="#6F6F6F"/>
<path d="M90.0568 446V387.818H113.011C117.424 387.818 121.184 388.661 124.29 390.347C127.396 392.013 129.763 394.333 131.392 397.307C133.04 400.261 133.864 403.67 133.864 407.534C133.864 411.398 133.03 414.807 131.364 417.761C129.697 420.716 127.282 423.017 124.119 424.665C120.975 426.312 117.169 427.136 112.699 427.136H98.0682V417.278H110.71C113.078 417.278 115.028 416.871 116.562 416.057C118.116 415.223 119.271 414.078 120.028 412.619C120.805 411.142 121.193 409.447 121.193 407.534C121.193 405.602 120.805 403.917 120.028 402.477C119.271 401.019 118.116 399.892 116.562 399.097C115.009 398.282 113.04 397.875 110.653 397.875H102.358V446H90.0568ZM141.854 446V387.818H154.155V435.858H179.098V446H141.854ZM223.182 387.818H235.483V425.602C235.483 429.845 234.47 433.557 232.443 436.739C230.436 439.92 227.623 442.402 224.006 444.182C220.388 445.943 216.174 446.824 211.364 446.824C206.534 446.824 202.311 445.943 198.693 444.182C195.076 442.402 192.263 439.92 190.256 436.739C188.248 433.557 187.244 429.845 187.244 425.602V387.818H199.545V424.551C199.545 426.767 200.028 428.737 200.994 430.46C201.979 432.184 203.362 433.538 205.142 434.523C206.922 435.508 208.996 436 211.364 436C213.75 436 215.824 435.508 217.585 434.523C219.366 433.538 220.739 432.184 221.705 430.46C222.689 428.737 223.182 426.767 223.182 424.551V387.818ZM284.183 406.625C283.786 405.242 283.227 404.021 282.507 402.96C281.787 401.881 280.907 400.972 279.865 400.233C278.842 399.475 277.668 398.898 276.342 398.5C275.036 398.102 273.587 397.903 271.996 397.903C269.022 397.903 266.409 398.642 264.155 400.119C261.92 401.597 260.178 403.746 258.928 406.568C257.678 409.371 257.053 412.799 257.053 416.852C257.053 420.905 257.668 424.352 258.899 427.193C260.13 430.034 261.873 432.203 264.126 433.699C266.38 435.176 269.041 435.915 272.109 435.915C274.893 435.915 277.27 435.422 279.24 434.438C281.229 433.434 282.744 432.023 283.786 430.205C284.846 428.386 285.376 426.237 285.376 423.756L287.876 424.125H272.876V414.864H297.223V422.193C297.223 427.307 296.143 431.701 293.984 435.375C291.825 439.03 288.852 441.852 285.064 443.841C281.276 445.811 276.939 446.795 272.053 446.795C266.598 446.795 261.806 445.593 257.678 443.188C253.549 440.763 250.329 437.326 248.018 432.875C245.727 428.405 244.581 423.102 244.581 416.966C244.581 412.25 245.263 408.045 246.626 404.352C248.009 400.64 249.941 397.496 252.422 394.92C254.903 392.345 257.791 390.384 261.087 389.04C264.382 387.695 267.952 387.023 271.797 387.023C275.092 387.023 278.161 387.506 281.001 388.472C283.842 389.419 286.361 390.763 288.558 392.506C290.774 394.248 292.583 396.322 293.984 398.727C295.386 401.114 296.286 403.746 296.683 406.625H284.183ZM318.764 387.818V446H306.463V387.818H318.764ZM377.55 387.818V446H366.925L341.612 409.381H341.186V446H328.885V387.818H339.68L364.794 424.409H365.305V387.818H377.55ZM414.673 412.108V421.71H388.139V412.108H414.673ZM476.548 408.188H464.105C463.878 406.578 463.414 405.148 462.713 403.898C462.012 402.629 461.113 401.549 460.014 400.659C458.916 399.769 457.647 399.087 456.207 398.614C454.787 398.14 453.243 397.903 451.577 397.903C448.565 397.903 445.942 398.652 443.707 400.148C441.473 401.625 439.74 403.784 438.509 406.625C437.277 409.447 436.662 412.875 436.662 416.909C436.662 421.057 437.277 424.542 438.509 427.364C439.759 430.186 441.501 432.316 443.736 433.756C445.971 435.195 448.556 435.915 451.491 435.915C453.139 435.915 454.664 435.697 456.065 435.261C457.486 434.826 458.745 434.191 459.844 433.358C460.942 432.506 461.851 431.473 462.571 430.261C463.31 429.049 463.821 427.667 464.105 426.114L476.548 426.17C476.226 428.841 475.421 431.417 474.134 433.898C472.865 436.36 471.151 438.566 468.991 440.517C466.851 442.449 464.295 443.983 461.321 445.119C458.366 446.237 455.024 446.795 451.293 446.795C446.103 446.795 441.463 445.621 437.372 443.273C433.3 440.924 430.08 437.525 427.713 433.074C425.365 428.623 424.19 423.235 424.19 416.909C424.19 410.564 425.384 405.167 427.77 400.716C430.156 396.265 433.395 392.875 437.486 390.545C441.577 388.197 446.179 387.023 451.293 387.023C454.664 387.023 457.789 387.496 460.668 388.443C463.565 389.39 466.132 390.773 468.366 392.591C470.601 394.39 472.42 396.597 473.821 399.21C475.241 401.824 476.151 404.816 476.548 408.188ZM538.835 416.909C538.835 423.254 537.633 428.652 535.227 433.102C532.841 437.553 529.583 440.953 525.455 443.301C521.345 445.631 516.723 446.795 511.591 446.795C506.42 446.795 501.78 445.621 497.67 443.273C493.561 440.924 490.313 437.525 487.926 433.074C485.54 428.623 484.347 423.235 484.347 416.909C484.347 410.564 485.54 405.167 487.926 400.716C490.313 396.265 493.561 392.875 497.67 390.545C501.78 388.197 506.42 387.023 511.591 387.023C516.723 387.023 521.345 388.197 525.455 390.545C529.583 392.875 532.841 396.265 535.227 400.716C537.633 405.167 538.835 410.564 538.835 416.909ZM526.364 416.909C526.364 412.799 525.748 409.333 524.517 406.511C523.305 403.689 521.591 401.549 519.375 400.091C517.159 398.633 514.564 397.903 511.591 397.903C508.617 397.903 506.023 398.633 503.807 400.091C501.591 401.549 499.867 403.689 498.636 406.511C497.424 409.333 496.818 412.799 496.818 416.909C496.818 421.019 497.424 424.485 498.636 427.307C499.867 430.129 501.591 432.269 503.807 433.727C506.023 435.186 508.617 435.915 511.591 435.915C514.564 435.915 517.159 435.186 519.375 433.727C521.591 432.269 523.305 430.129 524.517 427.307C525.748 424.485 526.364 421.019 526.364 416.909ZM547.947 387.818H563.118L579.141 426.909H579.822L595.845 387.818H611.016V446H599.084V408.131H598.601L583.544 445.716H575.419L560.362 407.989H559.879V446H547.947V387.818ZM621.151 387.818H636.321L652.344 426.909H653.026L669.048 387.818H684.219V446H672.287V408.131H671.804L656.747 445.716H648.622L633.565 407.989H633.082V446H621.151V387.818ZM694.354 446V387.818H733.558V397.96H706.655V411.824H731.541V421.966H706.655V435.858H733.672V446H694.354ZM792.003 387.818V446H781.378L756.065 409.381H755.639V446H743.338V387.818H754.134L779.247 424.409H779.759V387.818H792.003ZM799.95 397.96V387.818H847.734V397.96H829.922V446H817.763V397.96H799.95ZM887.166 404.551C886.939 402.259 885.964 400.479 884.24 399.21C882.517 397.941 880.178 397.307 877.223 397.307C875.215 397.307 873.52 397.591 872.138 398.159C870.755 398.708 869.695 399.475 868.956 400.46C868.236 401.445 867.876 402.562 867.876 403.812C867.839 404.854 868.056 405.763 868.53 406.54C869.022 407.316 869.695 407.989 870.547 408.557C871.399 409.106 872.384 409.589 873.501 410.006C874.619 410.403 875.812 410.744 877.081 411.028L882.308 412.278C884.846 412.847 887.176 413.604 889.297 414.551C891.418 415.498 893.255 416.663 894.808 418.045C896.361 419.428 897.564 421.057 898.416 422.932C899.287 424.807 899.732 426.956 899.751 429.381C899.732 432.941 898.823 436.028 897.024 438.642C895.244 441.237 892.668 443.254 889.297 444.693C885.945 446.114 881.901 446.824 877.166 446.824C872.469 446.824 868.378 446.104 864.893 444.665C861.428 443.225 858.719 441.095 856.768 438.273C854.837 435.432 853.823 431.919 853.729 427.733H865.632C865.765 429.684 866.323 431.312 867.308 432.619C868.312 433.907 869.647 434.883 871.314 435.545C873 436.189 874.903 436.511 877.024 436.511C879.107 436.511 880.916 436.208 882.45 435.602C884.003 434.996 885.206 434.153 886.058 433.074C886.911 431.994 887.337 430.754 887.337 429.352C887.337 428.045 886.948 426.947 886.172 426.057C885.414 425.167 884.297 424.409 882.82 423.784C881.361 423.159 879.571 422.591 877.45 422.08L871.115 420.489C866.21 419.295 862.337 417.43 859.496 414.892C856.655 412.354 855.244 408.936 855.263 404.636C855.244 401.114 856.181 398.036 858.075 395.403C859.988 392.771 862.611 390.716 865.945 389.239C869.278 387.761 873.066 387.023 877.308 387.023C881.626 387.023 885.395 387.761 888.615 389.239C891.854 390.716 894.373 392.771 896.172 395.403C897.971 398.036 898.899 401.085 898.956 404.551H887.166Z" fill="#252525"/>
<path d="M89.2443 497.818L97.017 519.858H97.3239L105.097 497.818H108.42L98.8068 524H95.5341L85.9205 497.818H89.2443ZM116.04 524.46C114.795 524.46 113.666 524.226 112.652 523.757C111.638 523.28 110.832 522.594 110.236 521.699C109.639 520.795 109.341 519.705 109.341 518.426C109.341 517.301 109.563 516.389 110.006 515.69C110.449 514.983 111.041 514.429 111.783 514.028C112.524 513.628 113.342 513.33 114.237 513.134C115.141 512.929 116.048 512.767 116.96 512.648C118.153 512.494 119.121 512.379 119.862 512.303C120.612 512.217 121.158 512.077 121.499 511.881C121.848 511.685 122.023 511.344 122.023 510.858V510.756C122.023 509.494 121.678 508.514 120.987 507.815C120.305 507.116 119.27 506.767 117.881 506.767C116.44 506.767 115.311 507.082 114.493 507.713C113.675 508.344 113.099 509.017 112.767 509.733L109.903 508.71C110.415 507.517 111.097 506.588 111.949 505.923C112.81 505.25 113.747 504.781 114.761 504.517C115.784 504.244 116.79 504.108 117.778 504.108C118.409 504.108 119.134 504.185 119.952 504.338C120.778 504.483 121.575 504.786 122.342 505.246C123.118 505.706 123.761 506.401 124.273 507.33C124.784 508.259 125.04 509.503 125.04 511.062V524H122.023V521.341H121.869C121.665 521.767 121.324 522.223 120.847 522.709C120.369 523.195 119.734 523.608 118.942 523.949C118.149 524.29 117.182 524.46 116.04 524.46ZM116.5 521.75C117.693 521.75 118.699 521.516 119.517 521.047C120.344 520.578 120.966 519.973 121.384 519.232C121.81 518.49 122.023 517.71 122.023 516.892V514.131C121.895 514.284 121.614 514.425 121.179 514.553C120.753 514.672 120.259 514.778 119.696 514.872C119.142 514.957 118.601 515.034 118.072 515.102C117.553 515.162 117.131 515.213 116.807 515.256C116.023 515.358 115.29 515.524 114.608 515.754C113.935 515.976 113.389 516.312 112.972 516.764C112.563 517.207 112.358 517.812 112.358 518.58C112.358 519.628 112.746 520.42 113.521 520.957C114.305 521.486 115.298 521.75 116.5 521.75ZM130.547 524V504.364H133.461V507.33H133.666C134.024 506.358 134.672 505.57 135.609 504.964C136.547 504.359 137.603 504.057 138.779 504.057C139.001 504.057 139.278 504.061 139.61 504.07C139.943 504.078 140.194 504.091 140.365 504.108V507.176C140.262 507.151 140.028 507.112 139.662 507.061C139.304 507.001 138.924 506.972 138.524 506.972C137.569 506.972 136.717 507.172 135.967 507.572C135.225 507.964 134.637 508.51 134.203 509.209C133.777 509.899 133.564 510.687 133.564 511.574V524H130.547ZM143.941 524V504.364H146.958V524H143.941ZM145.475 501.091C144.887 501.091 144.38 500.891 143.954 500.49C143.536 500.089 143.327 499.608 143.327 499.045C143.327 498.483 143.536 498.001 143.954 497.601C144.38 497.2 144.887 497 145.475 497C146.063 497 146.566 497.2 146.984 497.601C147.41 498.001 147.623 498.483 147.623 499.045C147.623 499.608 147.41 500.089 146.984 500.49C146.566 500.891 146.063 501.091 145.475 501.091ZM160.461 524.409C158.689 524.409 157.133 523.987 155.795 523.143C154.466 522.3 153.426 521.119 152.676 519.602C151.934 518.085 151.564 516.312 151.564 514.284C151.564 512.239 151.934 510.453 152.676 508.928C153.426 507.402 154.466 506.217 155.795 505.374C157.133 504.53 158.689 504.108 160.461 504.108C162.234 504.108 163.785 504.53 165.115 505.374C166.453 506.217 167.493 507.402 168.234 508.928C168.984 510.453 169.359 512.239 169.359 514.284C169.359 516.312 168.984 518.085 168.234 519.602C167.493 521.119 166.453 522.3 165.115 523.143C163.785 523.987 162.234 524.409 160.461 524.409ZM160.461 521.699C161.808 521.699 162.916 521.354 163.785 520.663C164.654 519.973 165.298 519.065 165.716 517.94C166.133 516.815 166.342 515.597 166.342 514.284C166.342 512.972 166.133 511.749 165.716 510.615C165.298 509.482 164.654 508.565 163.785 507.866C162.916 507.168 161.808 506.818 160.461 506.818C159.115 506.818 158.007 507.168 157.137 507.866C156.268 508.565 155.625 509.482 155.207 510.615C154.789 511.749 154.581 512.972 154.581 514.284C154.581 515.597 154.789 516.815 155.207 517.94C155.625 519.065 156.268 519.973 157.137 520.663C158.007 521.354 159.115 521.699 160.461 521.699ZM186.339 515.972V504.364H189.357V524H186.339V520.676H186.135C185.675 521.673 184.959 522.521 183.987 523.22C183.016 523.911 181.788 524.256 180.305 524.256C179.078 524.256 177.987 523.987 177.033 523.45C176.078 522.905 175.328 522.087 174.783 520.996C174.237 519.896 173.964 518.511 173.964 516.841V504.364H176.982V516.636C176.982 518.068 177.382 519.21 178.183 520.062C178.993 520.915 180.024 521.341 181.277 521.341C182.027 521.341 182.79 521.149 183.565 520.766C184.349 520.382 185.006 519.794 185.534 519.001C186.071 518.209 186.339 517.199 186.339 515.972ZM208.792 508.761L206.081 509.528C205.911 509.077 205.659 508.638 205.327 508.212C205.003 507.777 204.56 507.419 203.998 507.138C203.435 506.857 202.715 506.716 201.837 506.716C200.635 506.716 199.634 506.993 198.833 507.547C198.04 508.092 197.644 508.787 197.644 509.631C197.644 510.381 197.917 510.973 198.462 511.408C199.007 511.842 199.86 512.205 201.019 512.494L203.934 513.21C205.689 513.636 206.998 514.288 207.858 515.166C208.719 516.036 209.15 517.156 209.15 518.528C209.15 519.653 208.826 520.659 208.178 521.545C207.539 522.432 206.644 523.131 205.493 523.642C204.343 524.153 203.005 524.409 201.479 524.409C199.476 524.409 197.819 523.974 196.506 523.105C195.194 522.236 194.363 520.966 194.013 519.295L196.877 518.58C197.15 519.636 197.665 520.429 198.424 520.957C199.191 521.486 200.192 521.75 201.428 521.75C202.834 521.75 203.951 521.452 204.777 520.855C205.613 520.25 206.03 519.526 206.03 518.682C206.03 518 205.792 517.429 205.314 516.969C204.837 516.5 204.104 516.151 203.115 515.92L199.843 515.153C198.044 514.727 196.723 514.067 195.88 513.172C195.044 512.268 194.627 511.139 194.627 509.784C194.627 508.676 194.938 507.696 195.56 506.844C196.191 505.991 197.047 505.322 198.13 504.837C199.221 504.351 200.456 504.108 201.837 504.108C203.78 504.108 205.306 504.534 206.414 505.386C207.53 506.239 208.323 507.364 208.792 508.761ZM223.816 524V504.364H226.731V507.33H226.935C227.293 506.358 227.941 505.57 228.879 504.964C229.816 504.359 230.873 504.057 232.049 504.057C232.271 504.057 232.548 504.061 232.88 504.07C233.212 504.078 233.464 504.091 233.634 504.108V507.176C233.532 507.151 233.298 507.112 232.931 507.061C232.573 507.001 232.194 506.972 231.793 506.972C230.839 506.972 229.987 507.172 229.237 507.572C228.495 507.964 227.907 508.51 227.472 509.209C227.046 509.899 226.833 510.687 226.833 511.574V524H223.816ZM249.586 515.972V504.364H252.603V524H249.586V520.676H249.381C248.921 521.673 248.205 522.521 247.233 523.22C246.262 523.911 245.034 524.256 243.551 524.256C242.324 524.256 241.233 523.987 240.279 523.45C239.324 522.905 238.574 522.087 238.029 520.996C237.483 519.896 237.211 518.511 237.211 516.841V504.364H240.228V516.636C240.228 518.068 240.628 519.21 241.429 520.062C242.239 520.915 243.27 521.341 244.523 521.341C245.273 521.341 246.036 521.149 246.811 520.766C247.596 520.382 248.252 519.794 248.78 519.001C249.317 518.209 249.586 517.199 249.586 515.972ZM261.146 497.818V524H258.129V497.818H261.146ZM274.904 524.409C273.012 524.409 271.38 523.991 270.008 523.156C268.645 522.312 267.592 521.136 266.85 519.628C266.118 518.111 265.751 516.347 265.751 514.335C265.751 512.324 266.118 510.551 266.85 509.017C267.592 507.474 268.623 506.273 269.944 505.412C271.274 504.543 272.825 504.108 274.598 504.108C275.62 504.108 276.63 504.278 277.627 504.619C278.625 504.96 279.532 505.514 280.35 506.281C281.169 507.04 281.821 508.045 282.306 509.298C282.792 510.551 283.035 512.094 283.035 513.926V515.205H267.899V512.597H279.967C279.967 511.489 279.745 510.5 279.302 509.631C278.868 508.761 278.245 508.075 277.436 507.572C276.635 507.07 275.689 506.818 274.598 506.818C273.396 506.818 272.356 507.116 271.478 507.713C270.609 508.301 269.94 509.068 269.471 510.014C269.002 510.96 268.768 511.974 268.768 513.057V514.795C268.768 516.278 269.024 517.536 269.535 518.567C270.055 519.589 270.775 520.369 271.696 520.906C272.616 521.435 273.686 521.699 274.904 521.699C275.697 521.699 276.413 521.588 277.052 521.366C277.7 521.136 278.258 520.795 278.727 520.344C279.196 519.884 279.558 519.312 279.814 518.631L282.728 519.449C282.422 520.438 281.906 521.307 281.181 522.057C280.457 522.798 279.562 523.378 278.497 523.795C277.431 524.205 276.234 524.409 274.904 524.409ZM301.534 508.761L298.824 509.528C298.653 509.077 298.402 508.638 298.069 508.212C297.745 507.777 297.302 507.419 296.74 507.138C296.177 506.857 295.457 506.716 294.579 506.716C293.377 506.716 292.376 506.993 291.575 507.547C290.782 508.092 290.386 508.787 290.386 509.631C290.386 510.381 290.659 510.973 291.204 511.408C291.75 511.842 292.602 512.205 293.761 512.494L296.676 513.21C298.431 513.636 299.74 514.288 300.6 515.166C301.461 516.036 301.892 517.156 301.892 518.528C301.892 519.653 301.568 520.659 300.92 521.545C300.281 522.432 299.386 523.131 298.235 523.642C297.085 524.153 295.747 524.409 294.221 524.409C292.218 524.409 290.561 523.974 289.248 523.105C287.936 522.236 287.105 520.966 286.755 519.295L289.619 518.58C289.892 519.636 290.407 520.429 291.166 520.957C291.933 521.486 292.934 521.75 294.17 521.75C295.576 521.75 296.693 521.452 297.52 520.855C298.355 520.25 298.772 519.526 298.772 518.682C298.772 518 298.534 517.429 298.056 516.969C297.579 516.5 296.846 516.151 295.858 515.92L292.585 515.153C290.787 514.727 289.466 514.067 288.622 513.172C287.787 512.268 287.369 511.139 287.369 509.784C287.369 508.676 287.68 507.696 288.302 506.844C288.933 505.991 289.789 505.322 290.872 504.837C291.963 504.351 293.199 504.108 294.579 504.108C296.522 504.108 298.048 504.534 299.156 505.386C300.272 506.239 301.065 507.364 301.534 508.761ZM325.303 504.364V506.92H314.717V504.364H325.303ZM317.888 524V501.653C317.888 500.528 318.152 499.591 318.68 498.841C319.209 498.091 319.895 497.528 320.739 497.153C321.582 496.778 322.473 496.591 323.411 496.591C324.152 496.591 324.757 496.651 325.226 496.77C325.695 496.889 326.044 497 326.274 497.102L325.405 499.71C325.251 499.659 325.038 499.595 324.766 499.518C324.501 499.442 324.152 499.403 323.717 499.403C322.72 499.403 322 499.655 321.557 500.158C321.122 500.661 320.905 501.398 320.905 502.369V524H317.888ZM336.7 524.409C334.927 524.409 333.371 523.987 332.033 523.143C330.704 522.3 329.664 521.119 328.914 519.602C328.173 518.085 327.802 516.312 327.802 514.284C327.802 512.239 328.173 510.453 328.914 508.928C329.664 507.402 330.704 506.217 332.033 505.374C333.371 504.53 334.927 504.108 336.7 504.108C338.472 504.108 340.023 504.53 341.353 505.374C342.691 506.217 343.731 507.402 344.472 508.928C345.222 510.453 345.597 512.239 345.597 514.284C345.597 516.312 345.222 518.085 344.472 519.602C343.731 521.119 342.691 522.3 341.353 523.143C340.023 523.987 338.472 524.409 336.7 524.409ZM336.7 521.699C338.046 521.699 339.154 521.354 340.023 520.663C340.893 519.973 341.536 519.065 341.954 517.94C342.371 516.815 342.58 515.597 342.58 514.284C342.58 512.972 342.371 511.749 341.954 510.615C341.536 509.482 340.893 508.565 340.023 507.866C339.154 507.168 338.046 506.818 336.7 506.818C335.353 506.818 334.245 507.168 333.376 507.866C332.506 508.565 331.863 509.482 331.445 510.615C331.028 511.749 330.819 512.972 330.819 514.284C330.819 515.597 331.028 516.815 331.445 517.94C331.863 519.065 332.506 519.973 333.376 520.663C334.245 521.354 335.353 521.699 336.7 521.699ZM350.203 524V504.364H353.118V507.33H353.322C353.68 506.358 354.328 505.57 355.265 504.964C356.203 504.359 357.26 504.057 358.436 504.057C358.657 504.057 358.934 504.061 359.267 504.07C359.599 504.078 359.85 504.091 360.021 504.108V507.176C359.919 507.151 359.684 507.112 359.318 507.061C358.96 507.001 358.581 506.972 358.18 506.972C357.225 506.972 356.373 507.172 355.623 507.572C354.882 507.964 354.294 508.51 353.859 509.209C353.433 509.899 353.22 510.687 353.22 511.574V524H350.203ZM378.171 524L372.188 504.364H375.359L379.603 519.398H379.808L384.001 504.364H387.222L391.364 519.347H391.569L395.813 504.364H398.984L393.001 524H390.035L385.739 508.915H385.433L381.137 524H378.171ZM410.282 524.409C408.509 524.409 406.953 523.987 405.615 523.143C404.286 522.3 403.246 521.119 402.496 519.602C401.755 518.085 401.384 516.312 401.384 514.284C401.384 512.239 401.755 510.453 402.496 508.928C403.246 507.402 404.286 506.217 405.615 505.374C406.953 504.53 408.509 504.108 410.282 504.108C412.054 504.108 413.605 504.53 414.935 505.374C416.273 506.217 417.313 507.402 418.054 508.928C418.804 510.453 419.179 512.239 419.179 514.284C419.179 516.312 418.804 518.085 418.054 519.602C417.313 521.119 416.273 522.3 414.935 523.143C413.605 523.987 412.054 524.409 410.282 524.409ZM410.282 521.699C411.628 521.699 412.736 521.354 413.605 520.663C414.475 519.973 415.118 519.065 415.536 517.94C415.953 516.815 416.162 515.597 416.162 514.284C416.162 512.972 415.953 511.749 415.536 510.615C415.118 509.482 414.475 508.565 413.605 507.866C412.736 507.168 411.628 506.818 410.282 506.818C408.935 506.818 407.827 507.168 406.958 507.866C406.088 508.565 405.445 509.482 405.027 510.615C404.61 511.749 404.401 512.972 404.401 514.284C404.401 515.597 404.61 516.815 405.027 517.94C405.445 519.065 406.088 519.973 406.958 520.663C407.827 521.354 408.935 521.699 410.282 521.699ZM423.785 524V504.364H426.7V507.33H426.904C427.262 506.358 427.91 505.57 428.847 504.964C429.785 504.359 430.842 504.057 432.018 504.057C432.239 504.057 432.516 504.061 432.849 504.07C433.181 504.078 433.433 504.091 433.603 504.108V507.176C433.501 507.151 433.266 507.112 432.9 507.061C432.542 507.001 432.163 506.972 431.762 506.972C430.808 506.972 429.955 507.172 429.205 507.572C428.464 507.964 427.876 508.51 427.441 509.209C427.015 509.899 426.802 510.687 426.802 511.574V524H423.785ZM439.992 516.841L439.941 513.108H440.554L449.145 504.364H452.878L443.725 513.619H443.469L439.992 516.841ZM437.179 524V497.818H440.196V524H437.179ZM449.657 524L441.986 514.284L444.134 512.188L453.492 524H449.657ZM456.761 524V504.364H459.778V524H456.761ZM458.295 501.091C457.707 501.091 457.2 500.891 456.774 500.49C456.357 500.089 456.148 499.608 456.148 499.045C456.148 498.483 456.357 498.001 456.774 497.601C457.2 497.2 457.707 497 458.295 497C458.884 497 459.386 497.2 459.804 497.601C460.23 498.001 460.443 498.483 460.443 499.045C460.443 499.608 460.23 500.089 459.804 500.49C459.386 500.891 458.884 501.091 458.295 501.091ZM468.321 512.188V524H465.304V504.364H468.219V507.432H468.475C468.935 506.435 469.634 505.634 470.571 505.028C471.509 504.415 472.719 504.108 474.202 504.108C475.532 504.108 476.695 504.381 477.692 504.926C478.689 505.463 479.465 506.281 480.019 507.381C480.573 508.472 480.85 509.852 480.85 511.523V524H477.833V511.727C477.833 510.185 477.432 508.983 476.631 508.122C475.83 507.253 474.73 506.818 473.333 506.818C472.37 506.818 471.509 507.027 470.75 507.445C470 507.862 469.408 508.472 468.973 509.273C468.539 510.074 468.321 511.045 468.321 512.188ZM494.289 531.773C492.832 531.773 491.579 531.585 490.531 531.21C489.482 530.844 488.609 530.358 487.91 529.753C487.219 529.156 486.67 528.517 486.261 527.835L488.664 526.148C488.937 526.506 489.282 526.915 489.7 527.375C490.117 527.844 490.688 528.249 491.413 528.589C492.146 528.939 493.104 529.114 494.289 529.114C495.874 529.114 497.183 528.73 498.214 527.963C499.245 527.196 499.761 525.994 499.761 524.358V520.369H499.505C499.283 520.727 498.968 521.17 498.559 521.699C498.158 522.219 497.579 522.683 496.82 523.092C496.07 523.493 495.056 523.693 493.778 523.693C492.192 523.693 490.769 523.318 489.508 522.568C488.255 521.818 487.262 520.727 486.529 519.295C485.805 517.864 485.442 516.125 485.442 514.08C485.442 512.068 485.796 510.317 486.504 508.825C487.211 507.325 488.195 506.166 489.457 505.348C490.718 504.521 492.175 504.108 493.829 504.108C495.107 504.108 496.121 504.321 496.871 504.747C497.63 505.165 498.21 505.642 498.61 506.179C499.019 506.707 499.335 507.142 499.556 507.483H499.863V504.364H502.778V524.562C502.778 526.25 502.394 527.622 501.627 528.679C500.869 529.744 499.846 530.524 498.559 531.018C497.281 531.521 495.857 531.773 494.289 531.773ZM494.187 520.983C495.397 520.983 496.42 520.706 497.255 520.152C498.09 519.598 498.725 518.801 499.16 517.761C499.594 516.722 499.812 515.477 499.812 514.028C499.812 512.614 499.599 511.365 499.173 510.283C498.746 509.2 498.116 508.352 497.281 507.739C496.445 507.125 495.414 506.818 494.187 506.818C492.908 506.818 491.843 507.142 490.991 507.79C490.147 508.437 489.512 509.307 489.086 510.398C488.668 511.489 488.46 512.699 488.46 514.028C488.46 515.392 488.673 516.598 489.099 517.646C489.533 518.686 490.173 519.504 491.016 520.101C491.869 520.689 492.925 520.983 494.187 520.983ZM522.874 524L516.891 504.364H520.062L524.306 519.398H524.511L528.704 504.364H531.925L536.067 519.347H536.272L540.516 504.364H543.687L537.704 524H534.738L530.442 508.915H530.136L525.84 524H522.874ZM547.675 524V504.364H550.692V524H547.675ZM549.21 501.091C548.621 501.091 548.114 500.891 547.688 500.49C547.271 500.089 547.062 499.608 547.062 499.045C547.062 498.483 547.271 498.001 547.688 497.601C548.114 497.2 548.621 497 549.21 497C549.798 497 550.3 497.2 550.718 497.601C551.144 498.001 551.357 498.483 551.357 499.045C551.357 499.608 551.144 500.089 550.718 500.49C550.3 500.891 549.798 501.091 549.21 501.091ZM564.758 504.364V506.92H554.582V504.364H564.758ZM557.548 499.659H560.565V518.375C560.565 519.227 560.689 519.866 560.936 520.293C561.191 520.71 561.515 520.991 561.907 521.136C562.308 521.273 562.73 521.341 563.173 521.341C563.505 521.341 563.778 521.324 563.991 521.29C564.204 521.247 564.375 521.213 564.502 521.188L565.116 523.898C564.912 523.974 564.626 524.051 564.26 524.128C563.893 524.213 563.429 524.256 562.866 524.256C562.014 524.256 561.179 524.072 560.36 523.706C559.551 523.339 558.877 522.781 558.341 522.031C557.812 521.281 557.548 520.335 557.548 519.193V499.659ZM572.735 512.188V524H569.718V497.818H572.735V507.432H572.991C573.451 506.418 574.142 505.612 575.062 505.016C575.991 504.411 577.227 504.108 578.77 504.108C580.108 504.108 581.279 504.376 582.285 504.913C583.291 505.442 584.071 506.256 584.625 507.355C585.187 508.446 585.468 509.835 585.468 511.523V524H582.451V511.727C582.451 510.168 582.047 508.962 581.237 508.109C580.436 507.249 579.324 506.818 577.9 506.818C576.912 506.818 576.025 507.027 575.241 507.445C574.466 507.862 573.852 508.472 573.4 509.273C572.957 510.074 572.735 511.045 572.735 512.188ZM609.09 524.409C607.249 524.409 605.664 523.974 604.335 523.105C603.005 522.236 601.982 521.038 601.266 519.513C600.55 517.987 600.192 516.244 600.192 514.284C600.192 512.29 600.559 510.53 601.292 509.004C602.033 507.47 603.065 506.273 604.386 505.412C605.715 504.543 607.266 504.108 609.039 504.108C610.42 504.108 611.664 504.364 612.772 504.875C613.88 505.386 614.788 506.102 615.495 507.023C616.202 507.943 616.641 509.017 616.812 510.244H613.795C613.565 509.349 613.053 508.557 612.261 507.866C611.477 507.168 610.42 506.818 609.09 506.818C607.914 506.818 606.883 507.125 605.996 507.739C605.119 508.344 604.433 509.2 603.938 510.308C603.452 511.408 603.21 512.699 603.21 514.182C603.21 515.699 603.448 517.02 603.925 518.145C604.411 519.27 605.093 520.143 605.971 520.766C606.857 521.388 607.897 521.699 609.09 521.699C609.874 521.699 610.586 521.562 611.225 521.29C611.864 521.017 612.406 520.625 612.849 520.114C613.292 519.602 613.607 518.989 613.795 518.273H616.812C616.641 519.432 616.219 520.476 615.546 521.405C614.881 522.325 613.999 523.058 612.9 523.604C611.809 524.141 610.539 524.409 609.09 524.409ZM629.2 524.409C627.427 524.409 625.871 523.987 624.533 523.143C623.204 522.3 622.164 521.119 621.414 519.602C620.673 518.085 620.302 516.312 620.302 514.284C620.302 512.239 620.673 510.453 621.414 508.928C622.164 507.402 623.204 506.217 624.533 505.374C625.871 504.53 627.427 504.108 629.2 504.108C630.972 504.108 632.523 504.53 633.853 505.374C635.191 506.217 636.231 507.402 636.972 508.928C637.722 510.453 638.097 512.239 638.097 514.284C638.097 516.312 637.722 518.085 636.972 519.602C636.231 521.119 635.191 522.3 633.853 523.143C632.523 523.987 630.972 524.409 629.2 524.409ZM629.2 521.699C630.546 521.699 631.654 521.354 632.523 520.663C633.393 519.973 634.036 519.065 634.454 517.94C634.871 516.815 635.08 515.597 635.08 514.284C635.08 512.972 634.871 511.749 634.454 510.615C634.036 509.482 633.393 508.565 632.523 507.866C631.654 507.168 630.546 506.818 629.2 506.818C627.853 506.818 626.745 507.168 625.876 507.866C625.006 508.565 624.363 509.482 623.945 510.615C623.528 511.749 623.319 512.972 623.319 514.284C623.319 515.597 623.528 516.815 623.945 517.94C624.363 519.065 625.006 519.973 625.876 520.663C626.745 521.354 627.853 521.699 629.2 521.699ZM642.703 524V504.364H645.618V507.432H645.873C646.282 506.384 646.943 505.57 647.855 504.99C648.767 504.402 649.862 504.108 651.14 504.108C652.436 504.108 653.514 504.402 654.375 504.99C655.244 505.57 655.922 506.384 656.407 507.432H656.612C657.115 506.418 657.869 505.612 658.875 505.016C659.88 504.411 661.086 504.108 662.493 504.108C664.248 504.108 665.684 504.658 666.801 505.757C667.917 506.848 668.475 508.548 668.475 510.858V524H665.458V510.858C665.458 509.409 665.062 508.374 664.27 507.751C663.477 507.129 662.544 506.818 661.47 506.818C660.089 506.818 659.02 507.236 658.261 508.071C657.502 508.898 657.123 509.946 657.123 511.216V524H654.055V510.551C654.055 509.435 653.693 508.536 652.968 507.854C652.244 507.163 651.311 506.818 650.169 506.818C649.385 506.818 648.652 507.027 647.97 507.445C647.297 507.862 646.751 508.442 646.333 509.183C645.924 509.916 645.72 510.764 645.72 511.727V524H642.703ZM673.992 524V504.364H676.907V507.432H677.162C677.571 506.384 678.232 505.57 679.144 504.99C680.056 504.402 681.151 504.108 682.429 504.108C683.725 504.108 684.803 504.402 685.664 504.99C686.533 505.57 687.211 506.384 687.696 507.432H687.901C688.404 506.418 689.158 505.612 690.164 505.016C691.169 504.411 692.375 504.108 693.782 504.108C695.537 504.108 696.973 504.658 698.09 505.757C699.206 506.848 699.765 508.548 699.765 510.858V524H696.748V510.858C696.748 509.409 696.351 508.374 695.559 507.751C694.766 507.129 693.833 506.818 692.759 506.818C691.378 506.818 690.309 507.236 689.55 508.071C688.792 508.898 688.412 509.946 688.412 511.216V524H685.344V510.551C685.344 509.435 684.982 508.536 684.257 507.854C683.533 507.163 682.6 506.818 681.458 506.818C680.674 506.818 679.941 507.027 679.259 507.445C678.586 507.862 678.04 508.442 677.623 509.183C677.213 509.916 677.009 510.764 677.009 511.727V524H673.992ZM713.514 524.409C711.622 524.409 709.99 523.991 708.618 523.156C707.254 522.312 706.201 521.136 705.46 519.628C704.727 518.111 704.36 516.347 704.36 514.335C704.36 512.324 704.727 510.551 705.46 509.017C706.201 507.474 707.233 506.273 708.554 505.412C709.883 504.543 711.434 504.108 713.207 504.108C714.23 504.108 715.24 504.278 716.237 504.619C717.234 504.96 718.142 505.514 718.96 506.281C719.778 507.04 720.43 508.045 720.916 509.298C721.402 510.551 721.645 512.094 721.645 513.926V515.205H706.508V512.597H718.576C718.576 511.489 718.355 510.5 717.912 509.631C717.477 508.761 716.855 508.075 716.045 507.572C715.244 507.07 714.298 506.818 713.207 506.818C712.005 506.818 710.966 507.116 710.088 507.713C709.218 508.301 708.549 509.068 708.081 510.014C707.612 510.96 707.377 511.974 707.377 513.057V514.795C707.377 516.278 707.633 517.536 708.145 518.567C708.664 519.589 709.385 520.369 710.305 520.906C711.225 521.435 712.295 521.699 713.514 521.699C714.306 521.699 715.022 521.588 715.662 521.366C716.309 521.136 716.868 520.795 717.336 520.344C717.805 519.884 718.167 519.312 718.423 518.631L721.338 519.449C721.031 520.438 720.515 521.307 719.791 522.057C719.066 522.798 718.172 523.378 717.106 523.795C716.041 524.205 714.843 524.409 713.514 524.409ZM729.251 512.188V524H726.234V504.364H729.149V507.432H729.404C729.865 506.435 730.564 505.634 731.501 505.028C732.439 504.415 733.649 504.108 735.132 504.108C736.461 504.108 737.625 504.381 738.622 504.926C739.619 505.463 740.395 506.281 740.949 507.381C741.502 508.472 741.779 509.852 741.779 511.523V524H738.762V511.727C738.762 510.185 738.362 508.983 737.561 508.122C736.76 507.253 735.66 506.818 734.262 506.818C733.299 506.818 732.439 507.027 731.68 507.445C730.93 507.862 730.338 508.472 729.903 509.273C729.468 510.074 729.251 511.045 729.251 512.188ZM755.832 504.364V506.92H745.656V504.364H755.832ZM748.622 499.659H751.639V518.375C751.639 519.227 751.763 519.866 752.01 520.293C752.266 520.71 752.589 520.991 752.982 521.136C753.382 521.273 753.804 521.341 754.247 521.341C754.58 521.341 754.852 521.324 755.065 521.29C755.278 521.247 755.449 521.213 755.577 521.188L756.19 523.898C755.986 523.974 755.7 524.051 755.334 524.128C754.967 524.213 754.503 524.256 753.94 524.256C753.088 524.256 752.253 524.072 751.435 523.706C750.625 523.339 749.952 522.781 749.415 522.031C748.886 521.281 748.622 520.335 748.622 519.193V499.659ZM773.928 508.761L771.218 509.528C771.048 509.077 770.796 508.638 770.464 508.212C770.14 507.777 769.697 507.419 769.134 507.138C768.572 506.857 767.852 506.716 766.974 506.716C765.772 506.716 764.771 506.993 763.969 507.547C763.177 508.092 762.781 508.787 762.781 509.631C762.781 510.381 763.053 510.973 763.599 511.408C764.144 511.842 764.996 512.205 766.156 512.494L769.07 513.21C770.826 513.636 772.134 514.288 772.995 515.166C773.856 516.036 774.286 517.156 774.286 518.528C774.286 519.653 773.962 520.659 773.315 521.545C772.675 522.432 771.781 523.131 770.63 523.642C769.479 524.153 768.141 524.409 766.616 524.409C764.613 524.409 762.955 523.974 761.643 523.105C760.33 522.236 759.499 520.966 759.15 519.295L762.013 518.58C762.286 519.636 762.802 520.429 763.56 520.957C764.327 521.486 765.329 521.75 766.565 521.75C767.971 521.75 769.087 521.452 769.914 520.855C770.749 520.25 771.167 519.526 771.167 518.682C771.167 518 770.928 517.429 770.451 516.969C769.974 516.5 769.241 516.151 768.252 515.92L764.979 515.153C763.181 514.727 761.86 514.067 761.016 513.172C760.181 512.268 759.763 511.139 759.763 509.784C759.763 508.676 760.075 507.696 760.697 506.844C761.327 505.991 762.184 505.322 763.266 504.837C764.357 504.351 765.593 504.108 766.974 504.108C768.917 504.108 770.442 504.534 771.55 505.386C772.667 506.239 773.46 507.364 773.928 508.761Z" fill="#424242"/>
<rect x="935" y="48" width="700" height="700" fill="url(#paint1_radial_7_355)"/>
<path d="M1196.48 344.232L1281.57 295.119C1282.62 294.516 1283.8 294.199 1285.01 294.199C1286.22 294.199 1287.4 294.516 1288.45 295.119L1373.54 344.232C1374.59 344.836 1375.46 345.704 1376.06 346.75C1376.67 347.796 1376.99 348.983 1376.99 350.191V448.435C1376.99 449.643 1376.67 450.83 1376.06 451.876C1375.46 452.922 1374.59 453.791 1373.54 454.395L1288.45 503.507C1287.4 504.11 1286.22 504.428 1285.01 504.428C1283.8 504.428 1282.62 504.11 1281.57 503.507L1196.48 454.395C1195.43 453.791 1194.56 452.922 1193.96 451.876C1193.35 450.83 1193.03 449.643 1193.03 448.435V350.191C1193.03 348.983 1193.35 347.796 1193.96 346.75C1194.56 345.704 1195.43 344.836 1196.48 344.232Z" fill="#8080F2"/>
<path d="M1506.23 388.976L1404.48 212.113C1400.79 205.707 1393.96 201 1386.58 201H1183.24C1175.86 201 1169.03 205.717 1165.33 212.113L1063.77 388.588C1061.95 391.767 1061 395.363 1061 399.022C1061 402.681 1061.95 406.277 1063.77 409.456L1165.42 584.882C1169.11 591.288 1175.94 594.549 1183.32 594.549H1386.67C1394.04 594.549 1400.88 591.376 1404.56 584.979L1506.23 409.271C1509.92 402.866 1509.92 395.392 1506.23 388.889M1421.95 473.943C1421.95 476.544 1420.39 478.951 1418.12 480.251L1288.63 554.968C1287.51 555.607 1286.25 555.943 1284.96 555.943C1283.68 555.943 1282.41 555.607 1281.3 554.968L1151.69 480.251C1150.56 479.621 1149.62 478.708 1148.95 477.602C1148.28 476.496 1147.91 475.235 1147.87 473.943V324.587C1147.87 321.985 1149.42 319.578 1151.67 318.278L1281.17 243.561C1282.29 242.924 1283.55 242.589 1284.83 242.589C1286.11 242.589 1287.37 242.924 1288.49 243.561L1418.2 318.181C1419.33 318.809 1420.28 319.721 1420.96 320.827C1421.63 321.933 1422 323.195 1422.04 324.49L1421.95 473.943Z" fill="#4B32C3"/>
</g>
<defs>
<radialGradient id="paint0_radial_7_355" cx="0" cy="0" r="1" gradientUnits="userSpaceOnUse" gradientTransform="translate(860.5 398) rotate(24.8216) scale(948.085 780.002)">
<stop stop-color="white"/>
<stop offset="1" stop-color="#BABABA"/>
</radialGradient>
<radialGradient id="paint1_radial_7_355" cx="0" cy="0" r="1" gradientUnits="userSpaceOnUse" gradientTransform="translate(1285 398) rotate(90) scale(350)">
<stop stop-color="white"/>
<stop offset="1" stop-color="white" stop-opacity="0"/>
</radialGradient>
<clipPath id="clip0_7_355">
<rect width="1720" height="796" fill="white"/>
</clipPath>
</defs>
</svg>
